# xmcd CD database file
#
# Track frame offsets:
#	150
#	22107
#	43652
#	67898
#	88692
#	115987
#	134649
#	156049
#	178202
#	197877
#	224859
#	245352
#	268673
#
# Disc length: 3923 seconds
#
# Revision: 0
# Processed by: cddbd v1.5.2PL0 Copyright (c) Steve Scherf et al.
# Submitted via: CDex 1.51
#
DISCID=ca0f510d
DTITLE=Various Artist - Salsa En Matinee
DYEAR=1998
DGENRE=Salsa
TTITLE0=Roberto Lugo - Comparame Y Veras
TTITLE1=Pedro Conga - Atrevete
TTITLE2=Orquesta Mulenze - Yo Soy Ese Hombre
TTITLE3=Primi Cruz - Me Haces Falta
TTITLE4=Pedro Arroyo - Yo Fui El Segundo En To Vida
TTITLE5=Kim De Los Santos - Hace Un Mes
TTITLE6=Roberto Lugo - Entregate
TTITLE7=Luisito Carrion - Culpame
TTITLE8=Mimi Ibarra - No Puede Ser
TTITLE9=Pedro Arroyo - Descartame
TTITLE10=Roberto Lugo - Baila Para Una Mujer Enamorada
TTITLE11=Primi Cruz - Contra Todo
TTITLE12=Pedro Conga - La Va A Pagar
EXTD=YEAR: 1998
EXTT0=
EXTT1=
EXTT2=
EXTT3=
EXTT4=
EXTT5=
EXTT6=
EXTT7=
EXTT8=
EXTT9=
EXTT10=
EXTT11=
EXTT12=
PLAYORDER=
